<svg width="80" height="80" viewBox="0 0 80 80" fill="none" xmlns="http://www.w3.org/2000/svg">
<g id="rank_3">
<g id="Group 12477">
<g id="Group 12478">
<path id="Vector" d="M39.9819 0.11102C40.0922 0.394083 40.1932 0.645742 40.2896 0.899098C41.0416 2.87502 41.7936 4.85052 42.5413 6.82771C42.5923 6.96182 42.6644 6.99959 42.8045 7.00595C44.7604 7.09677 46.716 7.19523 48.672 7.29114C49.0815 7.31108 49.4906 7.32976 49.9188 7.35013C49.8551 7.48423 49.7287 7.53898 49.6319 7.61706C47.8792 9.03323 46.1248 10.4473 44.3658 11.8554C44.2508 11.9475 44.2355 12.0213 44.2728 12.1567C44.8674 14.3321 45.456 16.5091 46.0459 18.6858C46.0773 18.8012 46.1053 18.9175 46.1452 19.0728C45.7085 18.7898 45.2998 18.5262 44.8924 18.2597C43.315 17.2289 41.7371 16.1985 40.1631 15.1626C40.0333 15.0768 39.9441 15.0722 39.8113 15.1592C37.8655 16.4383 35.9159 17.7114 33.9671 18.9858C33.9319 19.0087 33.8954 19.03 33.8233 19.0741C33.9073 18.7635 33.9828 18.4846 34.058 18.2058C34.6046 16.1853 35.1503 14.1644 35.7007 12.1452C35.7347 12.0205 35.7211 11.9487 35.6137 11.8626C33.7948 10.4057 31.9798 8.94283 30.1647 7.48126C30.1265 7.45028 30.0908 7.41591 30.0293 7.36159C30.2856 7.34249 30.5186 7.32 30.7524 7.30854C32.638 7.21814 34.5235 7.12987 36.409 7.04075C36.67 7.02845 36.9314 7.00341 37.1924 7.00553C37.335 7.00638 37.3881 6.9406 37.4322 6.82432C38.0387 5.22313 38.6472 3.62278 39.2558 2.02201C39.493 1.39775 39.7302 0.77348 39.9823 0.110596L39.9819 0.11102Z" fill="url(#paint0_linear_5138_38546)"/>
<path id="Vector_2" d="M40.0325 10.7045C40.8146 9.57312 41.598 8.44299 42.3759 7.30862C42.4451 7.20762 42.5156 7.17367 42.634 7.17961C44.0102 7.24836 45.3873 7.31159 46.7636 7.37907C47.5822 7.41896 48.4005 7.46352 49.2187 7.50681C49.2636 7.50935 49.3082 7.51869 49.3566 7.55603C46.262 8.61911 43.1674 9.68176 40.0728 10.7448C40.0363 10.7546 40.0219 10.7419 40.0329 10.7045H40.0325Z" fill="url(#paint1_linear_5138_38546)"/>
<path id="Vector_3" d="M39.9035 10.6578C39.1298 9.53659 38.3575 8.41495 37.58 7.2967C37.5151 7.20291 37.51 7.13204 37.5494 7.02892C38.3388 4.96387 39.1239 2.89713 39.9103 0.830818C39.92 0.805355 39.9349 0.782014 39.9845 0.759521V10.7015C39.94 10.7198 39.9213 10.6901 39.9035 10.6578Z" fill="url(#paint2_linear_5138_38546)"/>
<path id="Vector_4" d="M40.1602 10.8225C41.4007 11.171 42.6411 11.5202 43.882 11.8665C43.9737 11.892 44.0242 11.9348 44.0497 12.0299C44.6302 14.1858 45.2137 16.3412 45.796 18.4966C45.7994 18.5094 45.7947 18.5242 45.7905 18.5909C43.8544 15.9818 41.9426 13.4053 40.0308 10.8289C40.0724 10.7937 40.1161 10.8064 40.1602 10.8225Z" fill="url(#paint3_linear_5138_38546)"/>
<path id="Vector_5" d="M39.8531 10.8197C38.6185 11.1626 37.3827 11.5025 36.1503 11.8526C36.0183 11.89 35.9292 11.8789 35.8248 11.7949C34.3429 10.5969 32.8584 9.40182 31.3748 8.20634C31.1223 8.00306 30.8697 7.79978 30.6338 7.56128C33.6809 8.60738 36.7283 9.65391 39.7754 10.7C39.8705 10.7308 39.8963 10.7707 39.8531 10.8197Z" fill="url(#paint4_linear_5138_38546)"/>
<path id="Vector_6" d="M39.9819 10.8297C39.9827 12.116 39.9823 13.4027 39.9861 14.689C39.9861 14.7832 39.9624 14.8435 39.8805 14.897C38.0077 16.1171 36.137 17.3397 34.2655 18.5619C34.254 18.5696 34.2404 18.5738 34.1704 18.6065C36.1052 15.9999 38.0068 13.4384 39.9081 10.8768C39.9199 10.8412 39.9378 10.8148 39.9819 10.8301V10.8297Z" fill="url(#paint5_linear_5138_38546)"/>
<path id="Vector_7" d="M39.9821 10.8297C39.9575 10.8454 39.9329 10.8606 39.9083 10.8763C39.89 10.8577 39.8718 10.839 39.8535 10.8203C39.9282 10.7155 39.7772 10.7562 39.7759 10.7006C39.8179 10.6849 39.8794 10.7278 39.9036 10.6582C39.9308 10.6726 39.9575 10.6871 39.9847 10.7019C40.0008 10.7028 40.0169 10.704 40.0326 10.7049C40.0458 10.7185 40.0589 10.7316 40.0725 10.7452C40.1018 10.7711 40.1311 10.797 40.1608 10.8229C40.1175 10.825 40.0746 10.8271 40.0314 10.8292C40.0152 10.8292 39.9987 10.8292 39.9826 10.8297H39.9821Z" fill="url(#paint6_linear_5138_38546)"/>
</g>
<circle id="Ellipse 193" cx="39.9999" cy="43.4845" r="25.8564" fill="url(#paint7_linear_5138_38546)"/>
<circle id="Ellipse 192" cx="39.9999" cy="43.4845" r="21.768" fill="url(#paint8_linear_5138_38546)"/>
<circle id="Ellipse 191" cx="39.9998" cy="43.4846" r="18.3425" fill="url(#paint9_linear_5138_38546)"/>
<path id="Subtract" opacity="0.5" fill-rule="evenodd" clip-rule="evenodd" d="M36.5745 54.3132C46.7048 54.3132 54.9171 46.101 54.9171 35.9707C54.9171 34.7202 54.7919 33.4988 54.5535 32.3186C56.9298 35.4112 58.3425 39.2829 58.3425 43.4845C58.3425 53.6148 50.1302 61.827 39.9999 61.827C31.1202 61.827 23.7142 55.5172 22.021 47.1366C25.3741 51.5005 30.6458 54.3132 36.5745 54.3132Z" fill="url(#paint10_linear_5138_38546)"/>
<g id="3">
<path d="M37.1939 43.9743V40.4942H39.7998C42.2439 40.4942 43.8302 39.167 43.8302 37.257C43.8302 35.3471 42.5191 34.1331 40.1883 34.1331C37.8899 34.1331 36.2875 35.3632 36.1418 37.3865H31.6582C31.901 33.1134 35.3001 30.3779 40.1883 30.3779C45.1251 30.3779 48.4594 32.822 48.4594 36.561C48.4594 39.5393 46.339 41.4654 43.5874 42.0319V42.129C47.0512 42.4528 49.3173 44.5084 49.3173 47.7132C49.3173 51.954 45.643 54.7704 40.2207 54.7704C34.944 54.7704 31.3507 51.9216 31.1403 47.6323H35.8019C35.9637 49.5423 37.6471 50.8372 40.2207 50.8372C42.6648 50.8372 44.3481 49.4775 44.3481 47.5028C44.3643 45.2368 42.6972 43.9743 39.8646 43.9743H37.1939Z" fill="#9E4600"/>
<path d="M37.1939 43.9743H36.3099C36.3099 44.4625 36.7057 44.8582 37.1939 44.8582V43.9743ZM37.1939 40.4942V39.6103C36.7057 39.6103 36.3099 40.006 36.3099 40.4942H37.1939ZM36.1418 37.3865V38.2705C36.6054 38.2705 36.9902 37.9124 37.0235 37.45L36.1418 37.3865ZM31.6582 37.3865L30.7757 37.3364C30.7619 37.5791 30.8487 37.8168 31.0157 37.9936C31.1827 38.1703 31.4151 38.2705 31.6582 38.2705V37.3865ZM43.5874 42.0319L43.4091 41.1661C42.9983 41.2507 42.7034 41.6124 42.7034 42.0319H43.5874ZM43.5874 42.129H42.7034C42.7034 42.5854 43.0508 42.9667 43.5051 43.0092L43.5874 42.129ZM31.1403 47.6323V46.7483C30.8983 46.7483 30.6669 46.8475 30.5001 47.0228C30.3332 47.198 30.2455 47.434 30.2574 47.6756L31.1403 47.6323ZM35.8019 47.6323L36.6827 47.5577C36.6439 47.1 36.2611 46.7483 35.8019 46.7483V47.6323ZM44.3481 47.5028L43.4642 47.4965V47.5028H44.3481ZM38.0779 43.9743V40.4942H36.3099V43.9743H38.0779ZM37.1939 41.3782H39.7998V39.6103H37.1939V41.3782ZM39.7998 41.3782C41.1754 41.3782 42.3949 41.0046 43.2891 40.2779C44.198 39.5392 44.7142 38.4778 44.7142 37.257H42.9462C42.9462 37.9462 42.6693 38.5034 42.174 38.9059C41.6641 39.3203 40.8683 39.6103 39.7998 39.6103V41.3782ZM44.7142 37.257C44.7142 36.0887 44.3056 35.0494 43.4657 34.3138C42.6403 33.5909 41.4993 33.2491 40.1883 33.2491V35.0171C41.2081 35.0171 41.888 35.2822 42.3009 35.6438C42.6992 35.9927 42.9462 36.5154 42.9462 37.257H44.7142ZM40.1883 33.2491C38.8866 33.2491 37.7039 33.5978 36.8082 34.3087C35.8993 35.0301 35.3499 36.0761 35.2601 37.323L37.0235 37.45C37.0794 36.6737 37.404 36.093 37.9073 35.6935C38.4239 35.2835 39.1916 35.0171 40.1883 35.0171V33.2491ZM36.1418 36.5025H31.6582V38.2705H36.1418V36.5025ZM32.5408 37.4367C32.6486 35.5382 33.4484 34.0198 34.7404 32.9644C36.0435 31.9 37.9052 31.2619 40.1883 31.2619V29.4939C37.5832 29.4939 35.3012 30.2235 33.622 31.5952C31.9318 32.9758 30.9106 34.9617 30.7757 37.3364L32.5408 37.4367ZM40.1883 31.2619C42.5213 31.2619 44.3882 31.8405 45.6478 32.7768C46.8856 33.697 47.5754 34.9852 47.5754 36.561H49.3434C49.3434 34.3979 48.366 32.5945 46.7025 31.3579C45.0607 30.1374 42.792 29.4939 40.1883 29.4939V31.2619ZM47.5754 36.561C47.5754 39.0133 45.864 40.6607 43.4091 41.1661L43.7657 42.8977C46.814 42.2701 49.3434 40.0653 49.3434 36.561H47.5754ZM42.7034 42.0319V42.129H44.4714V42.0319H42.7034ZM43.5051 43.0092C45.0872 43.157 46.3167 43.6926 47.1406 44.4799C47.9527 45.2558 48.4333 46.3339 48.4333 47.7132H50.2013C50.2013 45.8877 49.5488 44.3356 48.3619 43.2016C47.1869 42.0789 45.5515 41.4248 43.6697 41.2489L43.5051 43.0092ZM48.4333 47.7132C48.4333 49.5516 47.6482 51.0608 46.2617 52.1328C44.8565 53.2192 42.7876 53.8864 40.2207 53.8864V55.6544C43.0761 55.6544 45.5556 54.9134 47.343 53.5315C49.1493 52.135 50.2013 50.1156 50.2013 47.7132H48.4333ZM40.2207 53.8864C37.736 53.8864 35.7242 53.2159 34.3277 52.1155C32.9443 51.0254 32.1159 49.4783 32.0232 47.589L30.2574 47.6756C30.3751 50.0757 31.4485 52.0976 33.2335 53.5042C35.0055 54.9005 37.4287 55.6544 40.2207 55.6544V53.8864ZM31.1403 48.5163H35.8019V46.7483H31.1403V48.5163ZM34.9211 47.707C35.024 48.9222 35.62 49.9529 36.5822 50.6624C37.5308 51.3619 38.7919 51.7211 40.2207 51.7211V49.9532C39.0759 49.9532 38.2085 49.665 37.6315 49.2395C37.0682 48.8241 36.7416 48.2524 36.6827 47.5577L34.9211 47.707ZM40.2207 51.7211C41.6004 51.7211 42.8414 51.3373 43.7564 50.5982C44.6855 49.8477 45.2321 48.7636 45.2321 47.5028H43.4642C43.4642 48.2167 43.1691 48.7999 42.6455 49.2229C42.1078 49.6572 41.2851 49.9532 40.2207 49.9532V51.7211ZM45.2321 47.5091C45.2419 46.135 44.7288 44.9788 43.7179 44.1914C42.7397 43.4295 41.3959 43.0903 39.8646 43.0903V44.8582C41.1658 44.8582 42.0719 45.1503 42.6314 45.5861C43.1582 45.9965 43.4706 46.6046 43.4642 47.4965L45.2321 47.5091ZM39.8646 43.0903H37.1939V44.8582H39.8646V43.0903Z" fill="url(#paint11_linear_5138_38546)"/>
</g>
</g>
</g>
<defs>
<linearGradient id="paint0_linear_5138_38546" x1="39.974" y1="0.110596" x2="39.974" y2="19.0741" gradientUnits="userSpaceOnUse">
<stop stop-color="#EFB585"/>
<stop offset="1" stop-color="#E89662"/>
</linearGradient>
<linearGradient id="paint1_linear_5138_38546" x1="44.6929" y1="7.17896" x2="44.6929" y2="10.748" gradientUnits="userSpaceOnUse">
<stop stop-color="#F1B382"/>
<stop offset="1" stop-color="#C45D38"/>
</linearGradient>
<linearGradient id="paint2_linear_5138_38546" x1="38.7545" y1="0.759521" x2="38.7545" y2="10.7071" gradientUnits="userSpaceOnUse">
<stop stop-color="#F1B382"/>
<stop offset="1" stop-color="#C45D38"/>
</linearGradient>
<linearGradient id="paint3_linear_5138_38546" x1="42.914" y1="10.8064" x2="42.914" y2="18.5909" gradientUnits="userSpaceOnUse">
<stop stop-color="#C45D38"/>
<stop offset="1" stop-color="#F1B382"/>
</linearGradient>
<linearGradient id="paint4_linear_5138_38546" x1="35.2536" y1="7.56128" x2="35.2536" y2="11.873" gradientUnits="userSpaceOnUse">
<stop stop-color="#F1B382"/>
<stop offset="1" stop-color="#C45D38"/>
</linearGradient>
<linearGradient id="paint5_linear_5138_38546" x1="37.0783" y1="10.8257" x2="37.0783" y2="18.6065" gradientUnits="userSpaceOnUse">
<stop stop-color="#C45D38"/>
<stop offset="1" stop-color="#F1B382"/>
</linearGradient>
<linearGradient id="paint6_linear_5138_38546" x1="39.9683" y1="10.6582" x2="39.9683" y2="10.8763" gradientUnits="userSpaceOnUse">
<stop stop-color="#C45D38"/>
<stop offset="1" stop-color="#F1B382"/>
</linearGradient>
<linearGradient id="paint7_linear_5138_38546" x1="39.9999" y1="17.6282" x2="39.9999" y2="69.3409" gradientUnits="userSpaceOnUse">
<stop stop-color="#EFB585"/>
<stop offset="1" stop-color="#E89662"/>
</linearGradient>
<linearGradient id="paint8_linear_5138_38546" x1="39.9999" y1="21.7166" x2="39.9999" y2="65.2525" gradientUnits="userSpaceOnUse">
<stop stop-color="#C45D38"/>
<stop offset="1" stop-color="#F1B382"/>
</linearGradient>
<linearGradient id="paint9_linear_5138_38546" x1="39.9998" y1="25.1421" x2="39.9998" y2="61.8272" gradientUnits="userSpaceOnUse">
<stop stop-color="#EFB785"/>
<stop offset="1" stop-color="#CC663F"/>
</linearGradient>
<linearGradient id="paint10_linear_5138_38546" x1="56.464" y1="32.3243" x2="40.1818" y2="61.8271" gradientUnits="userSpaceOnUse">
<stop stop-color="#E57C50"/>
<stop offset="1" stop-color="#BF4B24"/>
</linearGradient>
<linearGradient id="paint11_linear_5138_38546" x1="40.334" y1="36.8399" x2="40.334" y2="61.2524" gradientUnits="userSpaceOnUse">
<stop stop-color="#EAB18A"/>
<stop offset="0.552391" stop-color="#DF754D"/>
<stop offset="1" stop-color="#FFE68A"/>
<stop offset="1" stop-color="#EAB18A"/>
</linearGradient>
</defs>
</svg>
