<svg width="80" height="80" viewBox="0 0 80 80" fill="none" xmlns="http://www.w3.org/2000/svg">
<g id="rank_2">
<g id="Group 12477">
<g id="Group 12478">
<path id="Vector" d="M39.9819 0.11102C40.0922 0.394083 40.1932 0.645742 40.2896 0.899098C41.0416 2.87502 41.7936 4.85052 42.5413 6.82771C42.5923 6.96182 42.6644 6.99959 42.8045 7.00595C44.7604 7.09677 46.716 7.19523 48.672 7.29114C49.0815 7.31108 49.4906 7.32976 49.9188 7.35013C49.8551 7.48423 49.7287 7.53898 49.6319 7.61706C47.8792 9.03323 46.1248 10.4473 44.3658 11.8554C44.2508 11.9475 44.2355 12.0213 44.2728 12.1567C44.8674 14.3321 45.456 16.5091 46.0459 18.6858C46.0773 18.8012 46.1053 18.9175 46.1452 19.0728C45.7085 18.7898 45.2998 18.5262 44.8924 18.2597C43.315 17.2289 41.7371 16.1985 40.1631 15.1626C40.0333 15.0768 39.9441 15.0722 39.8113 15.1592C37.8655 16.4383 35.9159 17.7114 33.9671 18.9858C33.9319 19.0087 33.8954 19.03 33.8233 19.0741C33.9073 18.7635 33.9828 18.4846 34.058 18.2058C34.6046 16.1853 35.1503 14.1644 35.7007 12.1452C35.7347 12.0205 35.7211 11.9487 35.6137 11.8626C33.7948 10.4057 31.9798 8.94283 30.1647 7.48126C30.1265 7.45028 30.0908 7.41591 30.0293 7.36159C30.2856 7.34249 30.5186 7.32 30.7524 7.30854C32.638 7.21814 34.5235 7.12987 36.409 7.04075C36.67 7.02845 36.9314 7.00341 37.1924 7.00553C37.335 7.00638 37.3881 6.9406 37.4322 6.82432C38.0387 5.22313 38.6472 3.62278 39.2558 2.02201C39.493 1.39775 39.7302 0.77348 39.9823 0.110596L39.9819 0.11102Z" fill="url(#paint0_linear_5138_38469)"/>
<path id="Vector_2" d="M40.0325 10.7045C40.8146 9.57312 41.598 8.44299 42.3759 7.30862C42.4451 7.20762 42.5156 7.17367 42.634 7.17961C44.0102 7.24836 45.3873 7.31159 46.7636 7.37907C47.5822 7.41896 48.4005 7.46352 49.2187 7.50681C49.2636 7.50935 49.3082 7.51869 49.3566 7.55603C46.262 8.61911 43.1674 9.68176 40.0728 10.7448C40.0363 10.7546 40.0219 10.7419 40.0329 10.7045H40.0325Z" fill="url(#paint1_linear_5138_38469)"/>
<path id="Vector_3" d="M39.9035 10.6578C39.1298 9.53659 38.3575 8.41495 37.58 7.2967C37.5151 7.20291 37.51 7.13204 37.5494 7.02892C38.3388 4.96387 39.1239 2.89713 39.9103 0.830818C39.92 0.805355 39.9349 0.782014 39.9845 0.759521V10.7015C39.94 10.7198 39.9213 10.6901 39.9035 10.6578Z" fill="url(#paint2_linear_5138_38469)"/>
<path id="Vector_4" d="M40.1602 10.8225C41.4007 11.171 42.6411 11.5202 43.882 11.8665C43.9737 11.892 44.0242 11.9348 44.0497 12.0299C44.6302 14.1858 45.2137 16.3412 45.796 18.4966C45.7994 18.5094 45.7947 18.5242 45.7905 18.5909C43.8544 15.9818 41.9426 13.4053 40.0308 10.8289C40.0724 10.7937 40.1161 10.8064 40.1602 10.8225Z" fill="url(#paint3_linear_5138_38469)"/>
<path id="Vector_5" d="M39.8531 10.8197C38.6185 11.1626 37.3827 11.5025 36.1503 11.8526C36.0183 11.89 35.9292 11.8789 35.8248 11.7949C34.3429 10.5969 32.8584 9.40182 31.3748 8.20634C31.1223 8.00306 30.8697 7.79978 30.6338 7.56128C33.6809 8.60738 36.7283 9.65391 39.7754 10.7C39.8705 10.7308 39.8963 10.7707 39.8531 10.8197Z" fill="url(#paint4_linear_5138_38469)"/>
<path id="Vector_6" d="M39.9819 10.8297C39.9827 12.116 39.9823 13.4027 39.9861 14.689C39.9861 14.7832 39.9624 14.8435 39.8805 14.897C38.0077 16.1171 36.137 17.3397 34.2655 18.5619C34.254 18.5696 34.2404 18.5738 34.1704 18.6065C36.1052 15.9999 38.0068 13.4384 39.9081 10.8768C39.9199 10.8412 39.9378 10.8148 39.9819 10.8301V10.8297Z" fill="url(#paint5_linear_5138_38469)"/>
<path id="Vector_7" d="M39.9821 10.8297C39.9575 10.8454 39.9329 10.8606 39.9083 10.8763C39.89 10.8577 39.8718 10.839 39.8535 10.8203C39.9282 10.7155 39.7772 10.7562 39.7759 10.7006C39.8179 10.6849 39.8794 10.7278 39.9036 10.6582C39.9308 10.6726 39.9575 10.6871 39.9847 10.7019C40.0008 10.7028 40.0169 10.704 40.0326 10.7049C40.0458 10.7185 40.0589 10.7316 40.0725 10.7452C40.1018 10.7711 40.1311 10.797 40.1608 10.8229C40.1175 10.825 40.0746 10.8271 40.0314 10.8292C40.0152 10.8292 39.9987 10.8292 39.9826 10.8297H39.9821Z" fill="#767676"/>
</g>
<g id="Intersect">
<mask id="path-8-inside-1_5138_38469" fill="white">
<path fill-rule="evenodd" clip-rule="evenodd" d="M12.2812 39.8413C12.6645 30.7975 17.2272 22.1976 24.9361 16.8813C20.394 23.7661 19.427 32.778 23.1689 40.8013C26.5218 47.9903 32.9124 52.7931 40.0996 54.3939C35.0007 55.5296 29.501 55.0538 24.4008 52.6751C18.8784 50.0996 14.764 45.7313 12.4275 40.5865C12.3755 40.3393 12.3267 40.0909 12.2812 39.8413ZM67.8666 38.9517C67.2315 30.2361 62.7187 22.023 55.263 16.8813C59.8051 23.7661 60.7721 32.778 57.0302 40.8013C53.6774 47.9903 47.2867 52.7931 40.0996 54.3939C45.1984 55.5296 50.6981 55.0538 55.7983 52.6751C61.0343 50.2332 65.0044 46.1798 67.3936 41.3809C67.5857 40.5839 67.7439 39.7736 67.8666 38.9517Z"/>
</mask>
<path fill-rule="evenodd" clip-rule="evenodd" d="M12.2812 39.8413C12.6645 30.7975 17.2272 22.1976 24.9361 16.8813C20.394 23.7661 19.427 32.778 23.1689 40.8013C26.5218 47.9903 32.9124 52.7931 40.0996 54.3939C35.0007 55.5296 29.501 55.0538 24.4008 52.6751C18.8784 50.0996 14.764 45.7313 12.4275 40.5865C12.3755 40.3393 12.3267 40.0909 12.2812 39.8413ZM67.8666 38.9517C67.2315 30.2361 62.7187 22.023 55.263 16.8813C59.8051 23.7661 60.7721 32.778 57.0302 40.8013C53.6774 47.9903 47.2867 52.7931 40.0996 54.3939C45.1984 55.5296 50.6981 55.0538 55.7983 52.6751C61.0343 50.2332 65.0044 46.1798 67.3936 41.3809C67.5857 40.5839 67.7439 39.7736 67.8666 38.9517Z" fill="url(#paint6_linear_5138_38469)"/>
<path d="M24.9361 16.8813L25.2128 17.0639L24.7479 16.6085L24.9361 16.8813ZM12.2812 39.8413L11.9501 39.8273L11.9485 39.8643L11.9551 39.9008L12.2812 39.8413ZM23.1689 40.8013L23.4694 40.6611L23.4694 40.6611L23.1689 40.8013ZM24.4008 52.6751L24.5409 52.3747L24.5409 52.3747L24.4008 52.6751ZM12.4275 40.5865L12.1032 40.6548L12.1107 40.6904L12.1257 40.7236L12.4275 40.5865ZM55.263 16.8813L55.4512 16.6085L54.9863 17.0639L55.263 16.8813ZM67.8666 38.9517L68.1945 39.0007L68.1999 38.9643L68.1972 38.9276L67.8666 38.9517ZM57.0302 40.8013L57.3306 40.9414L57.3306 40.9414L57.0302 40.8013ZM55.7983 52.6751L55.9384 52.9756L55.9384 52.9756L55.7983 52.6751ZM67.3936 41.3809L67.6904 41.5287L67.7071 41.4951L67.7159 41.4586L67.3936 41.3809ZM24.7479 16.6085C16.9513 21.9853 12.3376 30.6822 11.9501 39.8273L12.6124 39.8554C12.9914 30.9129 17.5032 22.41 25.1243 17.1542L24.7479 16.6085ZM23.4694 40.6611C19.7781 32.7466 20.7315 23.8565 25.2128 17.0639L24.6594 16.6988C20.0566 23.6757 19.0759 32.8094 22.8685 40.9414L23.4694 40.6611ZM40.1716 54.0704C33.0807 52.4909 26.7768 47.7529 23.4694 40.6611L22.8685 40.9414C26.2667 48.2276 32.7442 53.0952 40.0275 54.7175L40.1716 54.0704ZM24.2607 52.9756C29.4294 55.3862 35.004 55.8685 40.1716 54.7175L40.0275 54.0704C34.9975 55.1907 29.5726 54.7214 24.5409 52.3747L24.2607 52.9756ZM12.1257 40.7236C14.4936 45.9377 18.6639 50.3653 24.2607 52.9756L24.5409 52.3747C19.0928 49.8338 15.0344 45.525 12.7294 40.4495L12.1257 40.7236ZM12.7519 40.5183C12.7005 40.274 12.6523 40.0285 12.6074 39.7819L11.9551 39.9008C12.0012 40.1533 12.0505 40.4046 12.1032 40.6548L12.7519 40.5183ZM55.0748 17.1542C62.4456 22.2373 66.908 30.3578 67.536 38.9758L68.1972 38.9276C67.555 30.1145 62.9918 21.8087 55.4512 16.6085L55.0748 17.1542ZM57.3306 40.9414C61.1232 32.8094 60.1426 23.6757 55.5397 16.6988L54.9863 17.0639C59.4676 23.8565 60.421 32.7466 56.7298 40.6611L57.3306 40.9414ZM40.1716 54.7175C47.4549 53.0952 53.9324 48.2276 57.3306 40.9414L56.7298 40.6611C53.4223 47.7529 47.1185 52.4909 40.0275 54.0704L40.1716 54.7175ZM55.6582 52.3747C50.6265 54.7214 45.2016 55.1907 40.1716 54.0704L40.0275 54.7175C45.1952 55.8685 50.7697 55.3862 55.9384 52.9756L55.6582 52.3747ZM67.0969 41.2332C64.7399 45.9673 60.8237 49.9656 55.6582 52.3747L55.9384 52.9756C61.2448 50.5008 65.2689 46.3923 67.6904 41.5287L67.0969 41.2332ZM67.5388 38.9028C67.4175 39.715 67.2612 40.5156 67.0713 41.3032L67.7159 41.4586C67.9102 40.6521 68.0703 39.8322 68.1945 39.0007L67.5388 38.9028Z" fill="white" fill-opacity="0.5" mask="url(#path-8-inside-1_5138_38469)"/>
</g>
<g id="Subtract">
<path fill-rule="evenodd" clip-rule="evenodd" d="M40 69.3409C54.2801 69.3409 65.8564 57.7646 65.8564 43.4845C65.8564 43.4611 65.8563 43.4376 65.8563 43.4142C67.9904 39.6516 69.1199 35.3891 69.1329 31.0686C73.6987 44.0027 68.6813 58.7846 56.446 66.0749C51.634 68.9421 46.3343 70.2759 41.1151 70.2201C35.1829 70.7394 29.038 69.4663 23.5316 66.1854C11.2962 58.8951 6.27884 44.1132 10.8447 31.1791C10.8577 35.5148 11.9951 39.792 14.1438 43.5642C14.1867 57.8076 25.7465 69.3409 40 69.3409Z" fill="url(#paint7_linear_5138_38469)"/>
<path d="M69.2777 32.0234C73.2809 44.6641 68.2446 58.8519 56.3611 65.9325C51.576 68.7837 46.3065 70.1098 41.1169 70.0544L41.1088 70.0543L41.1007 70.055C35.202 70.5713 29.0919 69.3055 23.6164 66.043C11.733 58.9624 6.69669 44.7746 10.6998 32.1338C10.864 36.1549 11.9866 40.0978 13.9782 43.6083C14.0449 57.923 25.6697 69.5066 40 69.5066C54.3716 69.5066 66.0221 57.8562 66.0221 43.4845L66.0221 43.4577C67.9995 39.9573 69.1142 36.0291 69.2777 32.0234Z" stroke="white" stroke-opacity="0.5" stroke-width="0.331492"/>
</g>
<g id="Subtract_2">
<path fill-rule="evenodd" clip-rule="evenodd" d="M65.7268 40.8779C65.7643 41.2529 65.7939 41.6302 65.8152 42.0097C65.8278 41.6558 65.8342 41.3002 65.8342 40.9432C65.7983 40.9213 65.7625 40.8996 65.7268 40.8779ZM14.251 41.1143C14.1793 41.0025 14.1439 40.9432 14.1439 40.9432C14.1439 41.3826 14.1535 41.8197 14.1726 42.2545C14.1905 41.8722 14.2167 41.492 14.251 41.1143ZM17.3863 56.0307C13.35 53.8837 9.96982 50.6661 7.62451 46.7568C10.3227 60.2051 22.1993 70.3355 36.4419 70.3355C37.6425 70.3355 38.8262 70.2635 39.989 70.1236C41.1519 70.2635 42.3356 70.3355 43.5361 70.3355C57.7788 70.3355 69.6554 60.2051 72.3535 46.7568C70.0144 50.6558 66.6458 53.8668 62.6235 56.0138C59.3115 61.9815 53.7067 66.501 46.9988 68.3826C44.7795 69.237 42.4303 69.8299 39.989 70.1236C37.5255 69.8273 35.1557 69.2262 32.9185 68.3592C26.2538 66.4654 20.6858 61.9654 17.3863 56.0307Z" fill="url(#paint8_linear_5138_38469)"/>
<path d="M32.8658 68.5165C34.6966 69.2255 36.6156 69.7573 38.6017 70.0911C37.8886 70.1432 37.1684 70.1697 36.4419 70.1697C22.6089 70.1697 11.0202 60.5594 7.98878 47.6511C10.3097 51.2078 13.503 54.1433 17.2652 56.154C20.5875 62.1032 26.1773 66.6138 32.8658 68.5165ZM71.9893 47.6511C68.9579 60.5594 57.3691 70.1697 43.5361 70.1697C42.8097 70.1697 42.0895 70.1432 41.3764 70.0911C43.3404 69.761 45.2387 69.2373 47.0511 68.5401C53.7829 66.6495 59.4097 62.1193 62.7447 56.1369C66.4931 54.1267 69.675 51.1978 71.9893 47.6511Z" stroke="white" stroke-opacity="0.5" stroke-width="0.331492"/>
</g>
<circle id="Ellipse 193" cx="40.0004" cy="43.4845" r="25.8564" fill="url(#paint9_linear_5138_38469)"/>
<circle id="Ellipse 192" cx="40.0004" cy="43.4845" r="21.768" fill="url(#paint10_linear_5138_38469)"/>
<circle id="Ellipse 191" cx="40.0003" cy="43.4846" r="18.3425" fill="url(#paint11_linear_5138_38469)"/>
<path id="Subtract_3" opacity="0.5" fill-rule="evenodd" clip-rule="evenodd" d="M36.5745 54.3135C46.7048 54.3135 54.9171 46.1012 54.9171 35.9709C54.9171 34.7204 54.7919 33.4991 54.5535 32.3188C56.9298 35.4115 58.3425 39.2831 58.3425 43.4847C58.3425 53.6151 50.1302 61.8273 39.9999 61.8273C31.1202 61.8273 23.7142 55.5174 22.021 47.1368C25.3741 51.5007 30.6458 54.3135 36.5745 54.3135Z" fill="url(#paint12_linear_5138_38469)"/>
<g id="2">
<path d="M31.5969 37.9425C31.5969 33.4428 35.1579 30.3188 40.2241 30.3188C45.2256 30.3188 48.5276 33.2323 48.5276 37.117C48.5276 39.9819 47.1194 41.7462 43.17 45.5176L38.2656 50.2116V50.3087H48.8513V54.1934H31.8721V50.8428L40.1432 43.0088C43.1052 40.16 43.7689 39.0432 43.7689 37.4245C43.7689 35.547 42.3283 34.1226 40.2241 34.1226C37.8933 34.1226 36.129 35.6926 36.129 37.9425H31.5969Z" fill="#696969"/>
<path d="M31.5969 37.9425H30.7129C30.7129 38.4307 31.1087 38.8265 31.5969 38.8265V37.9425ZM43.17 45.5176L42.5595 44.8783L42.5588 44.879L43.17 45.5176ZM38.2656 50.2116L37.6544 49.573C37.4802 49.7397 37.3816 49.9704 37.3816 50.2116H38.2656ZM38.2656 50.3087H37.3816C37.3816 50.7969 37.7774 51.1927 38.2656 51.1927V50.3087ZM48.8513 50.3087H49.7353C49.7353 49.8205 49.3395 49.4247 48.8513 49.4247V50.3087ZM48.8513 54.1934V55.0773C49.3395 55.0773 49.7353 54.6816 49.7353 54.1934H48.8513ZM31.8721 54.1934H30.9881C30.9881 54.6816 31.3839 55.0773 31.8721 55.0773V54.1934ZM31.8721 50.8428L31.2642 50.201C31.0879 50.368 30.9881 50.6001 30.9881 50.8428H31.8721ZM40.1432 43.0088L40.7511 43.6506L40.756 43.6459L40.1432 43.0088ZM36.129 37.9425V38.8265C36.6172 38.8265 37.013 38.4307 37.013 37.9425H36.129ZM32.4809 37.9425C32.4809 35.9406 33.2664 34.2782 34.5953 33.1063C35.9326 31.9271 37.8707 31.2028 40.2241 31.2028V29.4349C37.5113 29.4349 35.1358 30.2725 33.426 31.7802C31.708 33.2952 30.7129 35.4446 30.7129 37.9425H32.4809ZM40.2241 31.2028C44.8915 31.2028 47.6436 33.8615 47.6436 37.117H49.4116C49.4116 32.6032 45.5598 29.4349 40.2241 29.4349V31.2028ZM47.6436 37.117C47.6436 39.5572 46.5392 41.078 42.5595 44.8783L43.7805 46.1569C47.6996 42.4145 49.4116 40.4067 49.4116 37.117H47.6436ZM42.5588 44.879L37.6544 49.573L38.8768 50.8502L43.7812 46.1562L42.5588 44.879ZM37.3816 50.2116V50.3087H39.1496V50.2116H37.3816ZM38.2656 51.1927H48.8513V49.4247H38.2656V51.1927ZM47.9673 50.3087V54.1934H49.7353V50.3087H47.9673ZM48.8513 53.3094H31.8721V55.0773H48.8513V53.3094ZM32.7561 54.1934V50.8428H30.9881V54.1934H32.7561ZM32.48 51.4846L40.7511 43.6505L39.5353 42.367L31.2642 50.201L32.48 51.4846ZM40.756 43.6459C42.239 42.2196 43.2136 41.1656 43.8113 40.2319C44.4414 39.2475 44.6529 38.3974 44.6529 37.4245H42.8849C42.8849 38.0703 42.7645 38.5879 42.3223 39.2788C41.8476 40.0203 41.0095 40.9491 39.5304 42.3716L40.756 43.6459ZM44.6529 37.4245C44.6529 35.0149 42.7715 33.2386 40.2241 33.2386V35.0066C41.8851 35.0066 42.8849 36.079 42.8849 37.4245H44.6529ZM40.2241 33.2386C37.4761 33.2386 35.2451 35.1364 35.2451 37.9425H37.013C37.013 36.2489 38.3106 35.0066 40.2241 35.0066V33.2386ZM36.129 37.0585H31.5969V38.8265H36.129V37.0585Z" fill="url(#paint13_linear_5138_38469)"/>
</g>
</g>
</g>
<defs>
<linearGradient id="paint0_linear_5138_38469" x1="39.974" y1="0.110596" x2="39.974" y2="19.0741" gradientUnits="userSpaceOnUse">
<stop stop-color="#FBFBFB"/>
<stop offset="1" stop-color="#D4D4D4"/>
</linearGradient>
<linearGradient id="paint1_linear_5138_38469" x1="44.6929" y1="7.17896" x2="44.6929" y2="10.748" gradientUnits="userSpaceOnUse">
<stop stop-color="#E3E3E3"/>
<stop offset="1" stop-color="#B1B1B1"/>
</linearGradient>
<linearGradient id="paint2_linear_5138_38469" x1="38.7545" y1="0.759521" x2="38.7545" y2="10.7071" gradientUnits="userSpaceOnUse">
<stop stop-color="#E3E3E3"/>
<stop offset="1" stop-color="#B1B1B1"/>
</linearGradient>
<linearGradient id="paint3_linear_5138_38469" x1="42.914" y1="10.8064" x2="42.914" y2="18.5909" gradientUnits="userSpaceOnUse">
<stop offset="0.291667" stop-color="#B1B1B1"/>
<stop offset="1" stop-color="#E3E3E3"/>
</linearGradient>
<linearGradient id="paint4_linear_5138_38469" x1="35.2536" y1="7.56128" x2="35.2536" y2="11.873" gradientUnits="userSpaceOnUse">
<stop stop-color="#E3E3E3"/>
<stop offset="1" stop-color="#B1B1B1"/>
</linearGradient>
<linearGradient id="paint5_linear_5138_38469" x1="37.0783" y1="10.8257" x2="37.0783" y2="18.6065" gradientUnits="userSpaceOnUse">
<stop offset="0.291667" stop-color="#B1B1B1"/>
<stop offset="1" stop-color="#E3E3E3"/>
</linearGradient>
<linearGradient id="paint6_linear_5138_38469" x1="40.0739" y1="27.6847" x2="40.0739" y2="40.4973" gradientUnits="userSpaceOnUse">
<stop stop-color="#ECEAE6"/>
<stop offset="1" stop-color="#BAB9B9"/>
</linearGradient>
<linearGradient id="paint7_linear_5138_38469" x1="39.9888" y1="42.2017" x2="39.9888" y2="56.2984" gradientUnits="userSpaceOnUse">
<stop stop-color="#ECEAE6"/>
<stop offset="1" stop-color="#BAB9B9"/>
</linearGradient>
<linearGradient id="paint8_linear_5138_38469" x1="39.989" y1="49.2305" x2="39.989" y2="70.3354" gradientUnits="userSpaceOnUse">
<stop stop-color="#ECEAE6"/>
<stop offset="1" stop-color="#BAB9B9"/>
</linearGradient>
<linearGradient id="paint9_linear_5138_38469" x1="40.0004" y1="17.6282" x2="40.0004" y2="69.3409" gradientUnits="userSpaceOnUse">
<stop stop-color="#FBFBFB"/>
<stop offset="1" stop-color="#D4D4D4"/>
</linearGradient>
<linearGradient id="paint10_linear_5138_38469" x1="40.0004" y1="21.7166" x2="40.0004" y2="65.2525" gradientUnits="userSpaceOnUse">
<stop stop-color="#B1B1B1"/>
<stop offset="1" stop-color="#E3E3E3"/>
</linearGradient>
<linearGradient id="paint11_linear_5138_38469" x1="40.0003" y1="25.1421" x2="40.0003" y2="61.8272" gradientUnits="userSpaceOnUse">
<stop stop-color="#E0E0E0"/>
<stop offset="1" stop-color="#B9B9B9"/>
</linearGradient>
<linearGradient id="paint12_linear_5138_38469" x1="56.464" y1="32.3246" x2="40.1818" y2="61.8273" gradientUnits="userSpaceOnUse">
<stop stop-color="#BFBFBF"/>
<stop offset="1" stop-color="#9E9E9E"/>
</linearGradient>
<linearGradient id="paint13_linear_5138_38469" x1="40.2241" y1="25.1934" x2="40.2241" y2="54.4395" gradientUnits="userSpaceOnUse">
<stop stop-color="#FBFBFB"/>
<stop offset="0.712018" stop-color="#B1B1B1"/>
<stop offset="1" stop-color="#D4D4D4"/>
</linearGradient>
</defs>
</svg>
