<svg width="80" height="80" viewBox="0 0 80 80" fill="none" xmlns="http://www.w3.org/2000/svg">
<g id="rank_1">
<g id="Group 12477">
<g id="Group 12478">
<path id="Vector" d="M39.9819 0.11102C40.0922 0.394083 40.1932 0.645742 40.2896 0.899098C41.0416 2.87502 41.7936 4.85052 42.5413 6.82771C42.5923 6.96182 42.6644 6.99959 42.8045 7.00595C44.7604 7.09677 46.716 7.19523 48.672 7.29114C49.0815 7.31108 49.4906 7.32976 49.9188 7.35013C49.8551 7.48423 49.7287 7.53898 49.6319 7.61706C47.8792 9.03323 46.1248 10.4473 44.3658 11.8554C44.2508 11.9475 44.2355 12.0213 44.2728 12.1567C44.8674 14.3321 45.456 16.5091 46.0459 18.6858C46.0773 18.8012 46.1053 18.9175 46.1452 19.0728C45.7085 18.7898 45.2998 18.5262 44.8924 18.2597C43.315 17.2289 41.7371 16.1985 40.1631 15.1626C40.0333 15.0768 39.9441 15.0722 39.8113 15.1592C37.8655 16.4383 35.9159 17.7114 33.9671 18.9858C33.9319 19.0087 33.8954 19.03 33.8233 19.0741C33.9073 18.7635 33.9828 18.4846 34.058 18.2058C34.6046 16.1853 35.1503 14.1644 35.7007 12.1452C35.7347 12.0205 35.7211 11.9487 35.6137 11.8626C33.7948 10.4057 31.9798 8.94283 30.1647 7.48126C30.1265 7.45028 30.0908 7.41591 30.0293 7.36159C30.2856 7.34249 30.5186 7.32 30.7524 7.30854C32.638 7.21814 34.5235 7.12987 36.409 7.04075C36.67 7.02845 36.9314 7.00341 37.1924 7.00553C37.335 7.00638 37.3881 6.9406 37.4322 6.82432C38.0387 5.22313 38.6472 3.62278 39.2558 2.02201C39.493 1.39775 39.7302 0.77348 39.9823 0.110596L39.9819 0.11102Z" fill="url(#paint0_linear_5138_38392)"/>
<path id="Vector_2" d="M40.0325 10.7045C40.8146 9.57312 41.598 8.44299 42.3759 7.30862C42.4451 7.20762 42.5156 7.17367 42.634 7.17961C44.0102 7.24836 45.3873 7.31159 46.7636 7.37907C47.5822 7.41896 48.4005 7.46352 49.2187 7.50681C49.2636 7.50935 49.3082 7.51869 49.3566 7.55603C46.262 8.61911 43.1674 9.68176 40.0728 10.7448C40.0363 10.7546 40.0219 10.7419 40.0329 10.7045H40.0325Z" fill="url(#paint1_linear_5138_38392)"/>
<path id="Vector_3" d="M39.9035 10.6578C39.1298 9.53659 38.3575 8.41495 37.58 7.2967C37.5151 7.20291 37.51 7.13204 37.5494 7.02892C38.3388 4.96387 39.1239 2.89713 39.9103 0.830818C39.92 0.805355 39.9349 0.782014 39.9845 0.759521V10.7015C39.94 10.7198 39.9213 10.6901 39.9035 10.6578Z" fill="url(#paint2_linear_5138_38392)"/>
<path id="Vector_4" d="M40.1602 10.8225C41.4007 11.171 42.6411 11.5202 43.882 11.8665C43.9737 11.892 44.0242 11.9348 44.0497 12.0299C44.6302 14.1858 45.2137 16.3412 45.796 18.4966C45.7994 18.5094 45.7947 18.5242 45.7905 18.5909C43.8544 15.9818 41.9426 13.4053 40.0308 10.8289C40.0724 10.7937 40.1161 10.8064 40.1602 10.8225Z" fill="url(#paint3_linear_5138_38392)"/>
<path id="Vector_5" d="M39.8531 10.8197C38.6185 11.1626 37.3827 11.5025 36.1503 11.8526C36.0183 11.89 35.9292 11.8789 35.8248 11.7949C34.3429 10.5969 32.8584 9.40182 31.3748 8.20634C31.1223 8.00306 30.8697 7.79978 30.6338 7.56128C33.6809 8.60738 36.7283 9.65391 39.7754 10.7C39.8705 10.7308 39.8963 10.7707 39.8531 10.8197Z" fill="url(#paint4_linear_5138_38392)"/>
<path id="Vector_6" d="M39.9819 10.8297C39.9827 12.116 39.9823 13.4027 39.9861 14.689C39.9861 14.7832 39.9624 14.8435 39.8805 14.897C38.0077 16.1171 36.137 17.3397 34.2655 18.5619C34.254 18.5696 34.2404 18.5738 34.1704 18.6065C36.1052 15.9999 38.0068 13.4384 39.9081 10.8768C39.9199 10.8412 39.9378 10.8148 39.9819 10.8301V10.8297Z" fill="url(#paint5_linear_5138_38392)"/>
<path id="Vector_7" d="M39.9821 10.8297C39.9575 10.8454 39.9329 10.8606 39.9083 10.8763C39.89 10.8577 39.8718 10.839 39.8535 10.8203C39.9282 10.7155 39.7772 10.7562 39.7759 10.7006C39.8179 10.6849 39.8794 10.7278 39.9036 10.6582C39.9308 10.6726 39.9575 10.6871 39.9847 10.7019C40.0008 10.7028 40.0169 10.704 40.0326 10.7049C40.0458 10.7185 40.0589 10.7316 40.0725 10.7452C40.1018 10.7711 40.1311 10.797 40.1608 10.8229C40.1175 10.825 40.0746 10.8271 40.0314 10.8292C40.0152 10.8292 39.9987 10.8292 39.9826 10.8297H39.9821Z" fill="#767676"/>
</g>
<g id="Intersect">
<mask id="path-8-inside-1_5138_38392" fill="white">
<path fill-rule="evenodd" clip-rule="evenodd" d="M12.2812 39.8413C12.6645 30.7975 17.2272 22.1976 24.9361 16.8813C20.394 23.7661 19.427 32.778 23.1689 40.8013C26.5218 47.9903 32.9124 52.7931 40.0996 54.3939C35.0007 55.5296 29.501 55.0538 24.4008 52.6751C18.8784 50.0996 14.764 45.7313 12.4275 40.5865C12.3755 40.3393 12.3267 40.0909 12.2812 39.8413ZM67.8666 38.9517C67.2315 30.2361 62.7187 22.023 55.263 16.8813C59.8051 23.7661 60.7721 32.778 57.0302 40.8013C53.6774 47.9903 47.2867 52.7931 40.0996 54.3939C45.1984 55.5296 50.6981 55.0538 55.7983 52.6751C61.0343 50.2332 65.0044 46.1798 67.3936 41.3809C67.5857 40.5839 67.7439 39.7736 67.8666 38.9517Z"/>
</mask>
<path fill-rule="evenodd" clip-rule="evenodd" d="M12.2812 39.8413C12.6645 30.7975 17.2272 22.1976 24.9361 16.8813C20.394 23.7661 19.427 32.778 23.1689 40.8013C26.5218 47.9903 32.9124 52.7931 40.0996 54.3939C35.0007 55.5296 29.501 55.0538 24.4008 52.6751C18.8784 50.0996 14.764 45.7313 12.4275 40.5865C12.3755 40.3393 12.3267 40.0909 12.2812 39.8413ZM67.8666 38.9517C67.2315 30.2361 62.7187 22.023 55.263 16.8813C59.8051 23.7661 60.7721 32.778 57.0302 40.8013C53.6774 47.9903 47.2867 52.7931 40.0996 54.3939C45.1984 55.5296 50.6981 55.0538 55.7983 52.6751C61.0343 50.2332 65.0044 46.1798 67.3936 41.3809C67.5857 40.5839 67.7439 39.7736 67.8666 38.9517Z" fill="url(#paint6_linear_5138_38392)"/>
<path d="M24.9361 16.8813L25.2128 17.0639L24.7479 16.6085L24.9361 16.8813ZM12.2812 39.8413L11.9501 39.8273L11.9485 39.8643L11.9551 39.9008L12.2812 39.8413ZM23.1689 40.8013L23.4694 40.6611L23.4694 40.6611L23.1689 40.8013ZM24.4008 52.6751L24.5409 52.3747L24.5409 52.3747L24.4008 52.6751ZM12.4275 40.5865L12.1032 40.6548L12.1107 40.6904L12.1257 40.7236L12.4275 40.5865ZM55.263 16.8813L55.4512 16.6085L54.9863 17.0639L55.263 16.8813ZM67.8666 38.9517L68.1945 39.0007L68.1999 38.9643L68.1972 38.9276L67.8666 38.9517ZM57.0302 40.8013L57.3306 40.9414L57.3306 40.9414L57.0302 40.8013ZM55.7983 52.6751L55.9384 52.9756L55.9384 52.9756L55.7983 52.6751ZM67.3936 41.3809L67.6904 41.5287L67.7071 41.4951L67.7159 41.4586L67.3936 41.3809ZM24.7479 16.6085C16.9513 21.9853 12.3376 30.6822 11.9501 39.8273L12.6124 39.8554C12.9914 30.9129 17.5032 22.41 25.1243 17.1542L24.7479 16.6085ZM23.4694 40.6611C19.7781 32.7466 20.7315 23.8565 25.2128 17.0639L24.6594 16.6988C20.0566 23.6757 19.0759 32.8094 22.8685 40.9414L23.4694 40.6611ZM40.1716 54.0704C33.0807 52.4909 26.7768 47.7529 23.4694 40.6611L22.8685 40.9414C26.2667 48.2276 32.7442 53.0952 40.0275 54.7175L40.1716 54.0704ZM24.2607 52.9756C29.4294 55.3862 35.004 55.8685 40.1716 54.7175L40.0275 54.0704C34.9975 55.1907 29.5726 54.7214 24.5409 52.3747L24.2607 52.9756ZM12.1257 40.7236C14.4936 45.9377 18.6639 50.3653 24.2607 52.9756L24.5409 52.3747C19.0928 49.8338 15.0344 45.525 12.7294 40.4495L12.1257 40.7236ZM12.7519 40.5183C12.7005 40.274 12.6523 40.0285 12.6074 39.7819L11.9551 39.9008C12.0012 40.1533 12.0505 40.4046 12.1032 40.6548L12.7519 40.5183ZM55.0748 17.1542C62.4456 22.2373 66.908 30.3578 67.536 38.9758L68.1972 38.9276C67.555 30.1145 62.9918 21.8087 55.4512 16.6085L55.0748 17.1542ZM57.3306 40.9414C61.1232 32.8094 60.1426 23.6757 55.5397 16.6988L54.9863 17.0639C59.4676 23.8565 60.421 32.7466 56.7298 40.6611L57.3306 40.9414ZM40.1716 54.7175C47.4549 53.0952 53.9324 48.2276 57.3306 40.9414L56.7298 40.6611C53.4223 47.7529 47.1185 52.4909 40.0275 54.0704L40.1716 54.7175ZM55.6582 52.3747C50.6265 54.7214 45.2016 55.1907 40.1716 54.0704L40.0275 54.7175C45.1952 55.8685 50.7697 55.3862 55.9384 52.9756L55.6582 52.3747ZM67.0969 41.2332C64.7399 45.9673 60.8237 49.9656 55.6582 52.3747L55.9384 52.9756C61.2448 50.5008 65.2689 46.3923 67.6904 41.5287L67.0969 41.2332ZM67.5388 38.9028C67.4175 39.715 67.2612 40.5156 67.0713 41.3032L67.7159 41.4586C67.9102 40.6521 68.0703 39.8322 68.1945 39.0007L67.5388 38.9028Z" fill="white" fill-opacity="0.5" mask="url(#path-8-inside-1_5138_38392)"/>
</g>
<g id="Subtract">
<path fill-rule="evenodd" clip-rule="evenodd" d="M40 69.3409C54.2801 69.3409 65.8564 57.7646 65.8564 43.4845C65.8564 43.4611 65.8563 43.4376 65.8563 43.4142C67.9904 39.6516 69.1199 35.3891 69.1329 31.0686C73.6987 44.0027 68.6813 58.7846 56.446 66.0749C51.634 68.9421 46.3343 70.2759 41.1151 70.2201C35.1829 70.7394 29.038 69.4663 23.5316 66.1854C11.2962 58.8951 6.27884 44.1132 10.8447 31.1791C10.8577 35.5148 11.9951 39.792 14.1438 43.5642C14.1867 57.8076 25.7465 69.3409 40 69.3409Z" fill="url(#paint7_linear_5138_38392)"/>
<path d="M69.2777 32.0234C73.2809 44.6641 68.2446 58.8519 56.3611 65.9325C51.576 68.7837 46.3065 70.1098 41.1169 70.0544L41.1088 70.0543L41.1007 70.055C35.202 70.5713 29.0919 69.3055 23.6164 66.043C11.733 58.9624 6.69669 44.7746 10.6998 32.1338C10.864 36.1549 11.9866 40.0978 13.9782 43.6083C14.0449 57.923 25.6697 69.5066 40 69.5066C54.3716 69.5066 66.0221 57.8562 66.0221 43.4845L66.0221 43.4577C67.9995 39.9573 69.1142 36.0291 69.2777 32.0234Z" stroke="white" stroke-opacity="0.5" stroke-width="0.331492"/>
</g>
<g id="Subtract_2">
<path fill-rule="evenodd" clip-rule="evenodd" d="M65.7268 40.8779C65.7643 41.2529 65.7939 41.6302 65.8152 42.0097C65.8278 41.6558 65.8342 41.3002 65.8342 40.9432C65.7983 40.9213 65.7625 40.8996 65.7268 40.8779ZM14.251 41.1143C14.1793 41.0025 14.1439 40.9432 14.1439 40.9432C14.1439 41.3826 14.1535 41.8197 14.1726 42.2545C14.1905 41.8722 14.2167 41.492 14.251 41.1143ZM17.3863 56.0307C13.35 53.8837 9.96982 50.6661 7.62451 46.7568C10.3227 60.2051 22.1993 70.3355 36.4419 70.3355C37.6425 70.3355 38.8262 70.2635 39.989 70.1236C41.1519 70.2635 42.3356 70.3355 43.5361 70.3355C57.7788 70.3355 69.6554 60.2051 72.3535 46.7568C70.0144 50.6558 66.6458 53.8668 62.6235 56.0138C59.3115 61.9815 53.7067 66.501 46.9988 68.3826C44.7795 69.237 42.4303 69.8299 39.989 70.1236C37.5255 69.8273 35.1557 69.2262 32.9185 68.3592C26.2538 66.4654 20.6858 61.9654 17.3863 56.0307Z" fill="url(#paint8_linear_5138_38392)"/>
<path d="M32.8658 68.5165C34.6966 69.2255 36.6156 69.7573 38.6017 70.0911C37.8886 70.1432 37.1684 70.1697 36.4419 70.1697C22.6089 70.1697 11.0202 60.5594 7.98878 47.6511C10.3097 51.2078 13.503 54.1433 17.2652 56.154C20.5875 62.1032 26.1773 66.6138 32.8658 68.5165ZM71.9893 47.6511C68.9579 60.5594 57.3691 70.1697 43.5361 70.1697C42.8097 70.1697 42.0895 70.1432 41.3764 70.0911C43.3404 69.761 45.2387 69.2373 47.0511 68.5401C53.7829 66.6495 59.4097 62.1193 62.7447 56.1369C66.4931 54.1267 69.675 51.1978 71.9893 47.6511Z" stroke="white" stroke-opacity="0.5" stroke-width="0.331492"/>
</g>
<path id="Intersect_2" fill-rule="evenodd" clip-rule="evenodd" d="M39.9999 68.4573L39.9999 79.949L35.2485 70.391L36.1325 68.4573H39.9999Z" fill="url(#paint9_linear_5138_38392)"/>
<path id="Subtract_3" fill-rule="evenodd" clip-rule="evenodd" d="M40 79.949L44.7514 70.391L43.8674 68.4573H40V79.949Z" fill="url(#paint10_linear_5138_38392)"/>
<circle id="Ellipse 193" cx="40.0004" cy="43.4845" r="25.8564" fill="url(#paint11_linear_5138_38392)"/>
<circle id="Ellipse 192" cx="40.0004" cy="43.4845" r="21.768" fill="url(#paint12_linear_5138_38392)"/>
<circle id="Ellipse 191" cx="40.0003" cy="43.4846" r="18.3425" fill="url(#paint13_linear_5138_38392)"/>
<path id="Subtract_4" opacity="0.5" fill-rule="evenodd" clip-rule="evenodd" d="M36.5745 54.3135C46.7048 54.3135 54.9171 46.1012 54.9171 35.9709C54.9171 34.7204 54.7919 33.4991 54.5535 32.3188C56.9298 35.4115 58.3425 39.2831 58.3425 43.4847C58.3425 53.6151 50.1302 61.8273 39.9999 61.8273C31.1202 61.8273 23.7142 55.5174 22.021 47.1368C25.3741 51.5007 30.6458 54.3135 36.5745 54.3135Z" fill="url(#paint14_linear_5138_38392)"/>
<g id="1">
<path d="M38.6072 56.468V36.3368H38.5036L32.15 40.6531V36.026L38.59 31.5543H43.7695V56.468H38.6072Z" fill="#AD5A00"/>
<path d="M38.6072 56.468H37.7232C37.7232 56.9562 38.119 57.352 38.6072 57.352V56.468ZM38.6072 36.3368H39.4912C39.4912 35.8486 39.0954 35.4528 38.6072 35.4528V36.3368ZM38.5036 36.3368V35.4528C38.3265 35.4528 38.1534 35.506 38.0069 35.6056L38.5036 36.3368ZM32.15 40.6531H31.2661C31.2661 40.9805 31.447 41.2811 31.7363 41.4343C32.0257 41.5875 32.376 41.5683 32.6468 41.3843L32.15 40.6531ZM32.15 36.026L31.6459 35.2999C31.4079 35.4651 31.2661 35.7364 31.2661 36.026H32.15ZM38.59 31.5543V30.6704C38.4097 30.6704 38.2338 30.7255 38.0858 30.8282L38.59 31.5543ZM43.7695 31.5543H44.6535C44.6535 31.0661 44.2577 30.6704 43.7695 30.6704V31.5543ZM43.7695 56.468V57.352C44.2577 57.352 44.6535 56.9562 44.6535 56.468H43.7695ZM39.4912 56.468V36.3368H37.7232V56.468H39.4912ZM38.6072 35.4528H38.5036V37.2208H38.6072V35.4528ZM38.0069 35.6056L31.6533 39.9219L32.6468 41.3843L39.0004 37.068L38.0069 35.6056ZM33.034 40.6531V36.026H31.2661V40.6531H33.034ZM32.6542 36.7521L39.0941 32.2804L38.0858 30.8282L31.6459 35.2999L32.6542 36.7521ZM38.59 32.4383H43.7695V30.6704H38.59V32.4383ZM42.8855 31.5543V56.468H44.6535V31.5543H42.8855ZM43.7695 55.584H38.6072V57.352H43.7695V55.584Z" fill="url(#paint15_linear_5138_38392)"/>
</g>
</g>
</g>
<defs>
<linearGradient id="paint0_linear_5138_38392" x1="39.974" y1="0.110596" x2="39.974" y2="19.0741" gradientUnits="userSpaceOnUse">
<stop stop-color="#FFDE65"/>
<stop offset="1" stop-color="#D6810B"/>
</linearGradient>
<linearGradient id="paint1_linear_5138_38392" x1="44.6929" y1="7.17896" x2="44.6929" y2="10.748" gradientUnits="userSpaceOnUse">
<stop offset="0.432292" stop-color="#FAC636"/>
<stop offset="1" stop-color="#FCEB93"/>
</linearGradient>
<linearGradient id="paint2_linear_5138_38392" x1="38.7545" y1="0.759521" x2="38.7545" y2="10.7071" gradientUnits="userSpaceOnUse">
<stop offset="0.432292" stop-color="#FAC636"/>
<stop offset="1" stop-color="#FCEB93"/>
</linearGradient>
<linearGradient id="paint3_linear_5138_38392" x1="42.914" y1="10.8064" x2="42.914" y2="18.5909" gradientUnits="userSpaceOnUse">
<stop stop-color="#FCEB93"/>
<stop offset="1" stop-color="#FAC636"/>
</linearGradient>
<linearGradient id="paint4_linear_5138_38392" x1="35.2536" y1="7.56128" x2="35.2536" y2="11.873" gradientUnits="userSpaceOnUse">
<stop stop-color="#FFDE65"/>
<stop offset="1" stop-color="#D6810B"/>
</linearGradient>
<linearGradient id="paint5_linear_5138_38392" x1="37.0783" y1="10.8257" x2="37.0783" y2="18.6065" gradientUnits="userSpaceOnUse">
<stop stop-color="#FCEB93"/>
<stop offset="1" stop-color="#FAC636"/>
</linearGradient>
<linearGradient id="paint6_linear_5138_38392" x1="40.0739" y1="27.6847" x2="40.0739" y2="54.982" gradientUnits="userSpaceOnUse">
<stop stop-color="#FFD752"/>
<stop offset="0.932292" stop-color="#EE8E0B"/>
</linearGradient>
<linearGradient id="paint7_linear_5138_38392" x1="39.9888" y1="42.2017" x2="39.9888" y2="70.3323" gradientUnits="userSpaceOnUse">
<stop stop-color="#FFD752"/>
<stop offset="0.932292" stop-color="#EE8E0B"/>
</linearGradient>
<linearGradient id="paint8_linear_5138_38392" x1="39.989" y1="49.2305" x2="39.989" y2="70.3354" gradientUnits="userSpaceOnUse">
<stop stop-color="#FFD752"/>
<stop offset="0.932292" stop-color="#EE8E0B"/>
</linearGradient>
<linearGradient id="paint9_linear_5138_38392" x1="37.6242" y1="68.4573" x2="37.6242" y2="79.949" gradientUnits="userSpaceOnUse">
<stop stop-color="#F8B123"/>
<stop offset="1" stop-color="#FAC636"/>
</linearGradient>
<linearGradient id="paint10_linear_5138_38392" x1="42.3757" y1="68.4573" x2="42.3757" y2="79.949" gradientUnits="userSpaceOnUse">
<stop stop-color="#FCEB93"/>
<stop offset="1" stop-color="#FAC636"/>
</linearGradient>
<linearGradient id="paint11_linear_5138_38392" x1="40.0004" y1="17.6282" x2="40.0004" y2="69.3409" gradientUnits="userSpaceOnUse">
<stop stop-color="#FCEB93"/>
<stop offset="1" stop-color="#FAC636"/>
</linearGradient>
<linearGradient id="paint12_linear_5138_38392" x1="40.0004" y1="21.7166" x2="40.0004" y2="65.2525" gradientUnits="userSpaceOnUse">
<stop stop-color="#D6810B"/>
<stop offset="1" stop-color="#FFDE65"/>
</linearGradient>
<linearGradient id="paint13_linear_5138_38392" x1="40.0003" y1="25.1421" x2="40.0003" y2="61.8272" gradientUnits="userSpaceOnUse">
<stop stop-color="#FAE064"/>
<stop offset="1" stop-color="#E49013"/>
</linearGradient>
<linearGradient id="paint14_linear_5138_38392" x1="56.464" y1="32.3246" x2="40.1818" y2="61.8273" gradientUnits="userSpaceOnUse">
<stop stop-color="#FA9F17"/>
<stop offset="1" stop-color="#D46F04"/>
</linearGradient>
<linearGradient id="paint15_linear_5138_38392" x1="39.1079" y1="38.0555" x2="39.1079" y2="62.468" gradientUnits="userSpaceOnUse">
<stop stop-color="#FFE68A"/>
<stop offset="0.552391" stop-color="#D7830D"/>
<stop offset="1" stop-color="#FFE68A"/>
</linearGradient>
</defs>
</svg>
